<svg xmlns="http://www.w3.org/2000/svg" viewBox="0 0 128 128" fill="none">
  <!-- Edges (drawn first, behind nodes) -->
  <line x1="64" y1="20" x2="28" y2="58" stroke="#6C8EBF" stroke-width="3.5" stroke-linecap="round"/>
  <line x1="64" y1="20" x2="100" y2="58" stroke="#6C8EBF" stroke-width="3.5" stroke-linecap="round"/>
  <line x1="28" y1="58" x2="100" y2="58" stroke="#6C8EBF" stroke-width="3" stroke-linecap="round" opacity="0.7"/>
  <line x1="28" y1="58" x2="40" y2="108" stroke="#6C8EBF" stroke-width="3" stroke-linecap="round" opacity="0.7"/>
  <line x1="100" y1="58" x2="88" y2="108" stroke="#6C8EBF" stroke-width="3" stroke-linecap="round" opacity="0.7"/>
  <line x1="40" y1="108" x2="88" y2="108" stroke="#6C8EBF" stroke-width="2.5" stroke-linecap="round" opacity="0.5"/>
  <line x1="64" y1="20" x2="64" y2="72" stroke="#6C8EBF" stroke-width="2.5" stroke-linecap="round" stroke-dasharray="5 4" opacity="0.4"/>
  <!-- Nodes -->
  <circle cx="64" cy="20" r="13" fill="#4A90D9"/>
  <circle cx="64" cy="20" r="10" fill="#5BA0EF"/>
  <circle cx="28" cy="58" r="11" fill="#3D7AC2"/>
  <circle cx="28" cy="58" r="8.5" fill="#4D8AD6"/>
  <circle cx="100" cy="58" r="11" fill="#3D7AC2"/>
  <circle cx="100" cy="58" r="8.5" fill="#4D8AD6"/>
  <circle cx="40" cy="108" r="9" fill="#2F6AAF"/>
  <circle cx="40" cy="108" r="7" fill="#3F7AC4"/>
  <circle cx="88" cy="108" r="9" fill="#2F6AAF"/>
  <circle cx="88" cy="108" r="7" fill="#3F7AC4"/>
  <circle cx="64" cy="72" r="7" fill="#2457B2"/>
  <circle cx="64" cy="72" r="5.5" fill="#3467C2"/>
</svg>
